<?xml version="1.0" encoding="UTF-8"?>
<!DOCTYPE svg PUBLIC "-//W3C//DTD SVG 1.1//EN" "http://www.w3.org/Graphics/SVG/1.1/DTD/svg11.dtd">
<!-- Creator: CorelDRAW X7 -->
<svg xmlns="http://www.w3.org/2000/svg" xml:space="preserve" width="50mm" height="95.481mm" version="1.1" style="shape-rendering:geometricPrecision; text-rendering:geometricPrecision; image-rendering:optimizeQuality; fill-rule:evenodd; clip-rule:evenodd"
viewBox="0 0 5000 9548"
 xmlns:xlink="http://www.w3.org/1999/xlink">
 <defs>
  <style type="text/css">
   <![CDATA[
    .fil0 {fill:black;fill-rule:nonzero}
   ]]>
  </style>
 </defs>
 <g id="Слой_x0020_1">
  <metadata id="CorelCorpID_0Corel-Layer"/>
  <path class="fil0" d="M2029 8385c-660,-64 -1164,-205 -1510,-423 -346,-218 -519,-456 -519,-712 0,-231 74,-407 221,-529 148,-122 337,-183 567,-183 135,0 385,58 750,174 366,115 686,173 962,173 212,0 396,-66 553,-197 157,-132 235,-303 235,-515 0,-282 -109,-487 -326,-615 -193,-116 -491,-234 -895,-356 -634,-192 -1099,-407 -1394,-644 -397,-334 -596,-782 -596,-1346 0,-571 186,-1055 558,-1452 352,-372 817,-616 1394,-731l0 -500c0,-353 131,-529 394,-529 167,0 276,51 327,154 45,70 67,195 67,375l0 461c430,32 792,113 1087,241 429,186 644,448 644,788 0,455 -240,683 -721,683 -148,0 -357,-40 -630,-120 -272,-80 -482,-120 -630,-120 -205,0 -381,48 -529,144 -166,109 -250,263 -250,461 0,127 29,229 87,306 77,109 260,215 548,318 218,64 433,131 644,202 1289,434 1933,1145 1933,2131 0,627 -205,1152 -615,1575 -411,422 -933,672 -1568,749l0 652c0,365 -131,548 -394,548 -263,0 -394,-183 -394,-548l0 -615z"/>
 </g>
</svg>
