<?xml version="1.0" encoding="UTF-8"?>
<!DOCTYPE svg PUBLIC "-//W3C//DTD SVG 1.1//EN" "http://www.w3.org/Graphics/SVG/1.1/DTD/svg11.dtd">
<!-- Creator: CorelDRAW X7 -->
<svg xmlns="http://www.w3.org/2000/svg" xml:space="preserve" width="50mm" height="70.3mm" version="1.1" style="shape-rendering:geometricPrecision; text-rendering:geometricPrecision; image-rendering:optimizeQuality; fill-rule:evenodd; clip-rule:evenodd"
viewBox="0 0 5000 7030"
 xmlns:xlink="http://www.w3.org/1999/xlink">
 <defs>
  <style type="text/css">
   <![CDATA[
    .fil0 {fill:black}
   ]]>
  </style>
 </defs>
 <g id="Слой_x0020_1">
  <metadata id="CorelCorpID_0Corel-Layer"/>
  <path class="fil0" d="M2500 0l0 0c272,0 495,223 495,495l0 6040c0,272 -223,495 -495,495l0 0c-272,0 -495,-223 -495,-495l0 -6040c0,-272 223,-495 495,-495zm2005 1944l0 0c272,0 495,223 495,496l0 4095c0,272 -223,495 -495,495l0 0c-273,0 -496,-223 -496,-495l0 -4095c0,-273 223,-496 496,-496zm-4010 1071l0 0c273,0 496,222 496,495l0 3025c0,272 -223,495 -496,495l0 0c-272,0 -495,-223 -495,-495l0 -3025c0,-273 223,-495 495,-495z"/>
 </g>
</svg>
