<?xml version="1.0" encoding="UTF-8"?>
<!DOCTYPE svg PUBLIC "-//W3C//DTD SVG 1.1//EN" "http://www.w3.org/Graphics/SVG/1.1/DTD/svg11.dtd">
<!-- Creator: CorelDRAW X7 -->
<svg xmlns="http://www.w3.org/2000/svg" xml:space="preserve" width="50mm" height="50mm" version="1.1" style="shape-rendering:geometricPrecision; text-rendering:geometricPrecision; image-rendering:optimizeQuality; fill-rule:evenodd; clip-rule:evenodd"
viewBox="0 0 5000 5000"
 xmlns:xlink="http://www.w3.org/1999/xlink">
 <defs>
  <style type="text/css">
   <![CDATA[
    .fil0 {fill:black}
   ]]>
  </style>
 </defs>
 <g id="Слой_x0020_1">
  <metadata id="CorelCorpID_0Corel-Layer"/>
  <path class="fil0" d="M2500 -158c1468,0 2658,1190 2658,2658 0,1468 -1190,2658 -2658,2658 -1468,0 -2658,-1190 -2658,-2658 0,-1468 1190,-2658 2658,-2658zm387 1056c94,0 173,33 238,97 64,66 97,144 97,237 0,92 -33,171 -99,236 -64,65 -144,98 -236,98 -91,0 -170,-33 -235,-98 -66,-65 -98,-144 -98,-236 0,-93 32,-171 97,-237 64,-64 143,-97 236,-97zm184 1043l-500 1594c-28,92 -42,152 -42,180 0,18 7,34 20,48 13,15 27,23 43,23 25,0 50,-12 76,-36 66,-58 146,-164 240,-316l79 47c-231,414 -475,621 -734,621 -99,0 -177,-27 -236,-82 -59,-54 -88,-124 -88,-207 0,-56 14,-127 42,-213l346 -1081c34,-104 51,-183 51,-235 0,-34 -16,-63 -47,-88 -30,-26 -72,-39 -125,-39 -25,0 -53,1 -87,2l28 -93 794 -125 140 0z"/>
 </g>
</svg>
