<?xml version="1.0" encoding="iso-8859-1"?>
<!-- Generator: Adobe Illustrator 19.0.0, SVG Export Plug-In . SVG Version: 6.00 Build 0)  -->
<svg version="1.1" id="Capa_1" xmlns="http://www.w3.org/2000/svg" xmlns:xlink="http://www.w3.org/1999/xlink" x="0px" y="0px"
	 viewBox="0 0 512.548 512.548" style="enable-background:new 0 0 512.548 512.548;" xml:space="preserve">
<path style="fill:#2196F3;" d="M331.73,387.456c-3.329-4.282-9.342-5.384-13.973-2.56c-65.256,39.949-150.541,19.434-190.49-45.822
	s-19.434-150.541,45.822-190.49c16.091-9.851,34.024-16.311,52.7-18.985c5.253-0.754,9.153-5.254,9.152-10.56V32
	c0-5.891-4.776-10.667-10.667-10.667c-123.52,0-224,110.059-224,245.333C0.427,402.097,110.177,511.847,245.607,512
	c49.173,3.821,97.795-12.45,134.763-45.099c4.46-3.67,5.188-10.224,1.643-14.784L331.73,387.456z"/>
<path style="fill:#FFC107;" d="M266.941,106.667c76.544,0.094,138.573,62.122,138.667,138.667c0,5.891,4.776,10.667,10.667,10.667
	h85.333c5.891,0,10.667-4.776,10.667-10.667C512.121,109.903,402.371,0.153,266.941,0c-5.891,0-10.667,4.776-10.667,10.667V96
	C256.274,101.891,261.05,106.667,266.941,106.667z"/>
<path style="fill:#F44336;" d="M501.607,277.333h-87.019c-5.347-0.054-9.908,3.859-10.667,9.152
	c-4.805,33.585-21.78,64.234-47.701,86.123c-4.481,3.752-5.109,10.41-1.408,14.933l63.744,78.933
	c1.86,2.308,4.596,3.737,7.552,3.947h0.832c2.699,0.002,5.299-1.02,7.275-2.859C483.933,421.068,512.188,356.07,512.274,288
	C512.274,282.109,507.499,277.333,501.607,277.333z"/>
<g>
</g>
<g>
</g>
<g>
</g>
<g>
</g>
<g>
</g>
<g>
</g>
<g>
</g>
<g>
</g>
<g>
</g>
<g>
</g>
<g>
</g>
<g>
</g>
<g>
</g>
<g>
</g>
<g>
</g>
</svg>
