<?xml version="1.0" encoding="UTF-8"?>
<!DOCTYPE svg PUBLIC "-//W3C//DTD SVG 1.1//EN" "http://www.w3.org/Graphics/SVG/1.1/DTD/svg11.dtd">
<!-- Creator: CorelDRAW X7 -->
<svg xmlns="http://www.w3.org/2000/svg" xml:space="preserve" width="50mm" height="48.881mm" version="1.1" style="shape-rendering:geometricPrecision; text-rendering:geometricPrecision; image-rendering:optimizeQuality; fill-rule:evenodd; clip-rule:evenodd"
viewBox="0 0 5000 4888"
 xmlns:xlink="http://www.w3.org/1999/xlink">
 <defs>
  <style type="text/css">
   <![CDATA[
    .fil0 {fill:#774CF9}
   ]]>
  </style>
 </defs>
 <g id="Слой_x0020_1">
  <metadata id="CorelCorpID_0Corel-Layer"/>
  <path class="fil0" d="M4997 3523c79,-1058 -1228,-3523 -2497,-3523 -1269,0 -2580,2470 -2496,3523 126,1807 4861,1833 4993,0zm-2917 423c0,-116 41,-215 123,-297 81,-82 181,-123 297,-123 116,0 216,41 298,123 81,82 122,181 122,297 0,117 -41,218 -122,303 -82,85 -182,127 -298,127 -116,0 -216,-42 -297,-127 -82,-85 -123,-186 -123,-303zm793 -1242c0,372 -125,558 -375,558 -251,0 -376,-186 -376,-558l0 -1421c0,-371 125,-557 376,-557 250,0 375,186 375,557l0 1421z"/>
 </g>
</svg>
