<?xml version="1.0" encoding="UTF-8"?>
<!DOCTYPE svg PUBLIC "-//W3C//DTD SVG 1.1//EN" "http://www.w3.org/Graphics/SVG/1.1/DTD/svg11.dtd">
<!-- Creator: CorelDRAW X7 -->
<svg xmlns="http://www.w3.org/2000/svg" xml:space="preserve" width="50mm" height="73.267mm" version="1.1" style="shape-rendering:geometricPrecision; text-rendering:geometricPrecision; image-rendering:optimizeQuality; fill-rule:evenodd; clip-rule:evenodd"
viewBox="0 0 5000 7327"
 xmlns:xlink="http://www.w3.org/1999/xlink">
 <defs>
  <style type="text/css">
   <![CDATA[
    .fil0 {fill:blue}
   ]]>
  </style>
 </defs>
 <g id="Слой_x0020_1">
  <metadata id="CorelCorpID_0Corel-Layer"/>
  <path class="fil0" d="M656 3181l80 0 0 -1417c0,-970 794,-1764 1764,-1764l0 0c970,0 1764,794 1764,1764l0 1417 80 0c361,0 656,295 656,656l0 2834c0,361 -295,656 -656,656l-3688 0c-361,0 -656,-295 -656,-656l0 -2834c0,-361 295,-656 656,-656zm1844 1185l0 0c109,0 198,89 198,198l0 454c147,73 248,225 248,400 0,246 -200,445 -446,445 -246,0 -446,-199 -446,-445 0,-175 101,-327 248,-400l0 -454c0,-109 89,-198 198,-198zm-1392 -1185l2784 0 0 -1426c0,-766 -626,-1392 -1392,-1392l0 0c-766,0 -1392,626 -1392,1392l0 1426zm-530 415l3844 0c111,0 201,90 201,200l0 2915c0,110 -90,200 -201,200l-3844 0c-110,0 -201,-90 -201,-200l0 -2915c0,-110 91,-200 201,-200z"/>
 </g>
</svg>
